<svg width="24" height="24" xmlns="http://www.w3.org/2000/svg">

 <g>
  <title>background</title>
  <rect fill="none" id="canvas_background" height="26" width="26" y="-1" x="-1"/>
 </g>
 <g>
  <title>Layer 1</title>
  <path id="svg_3" fill="#FED600" d="m12,23c-6.06543,0 -11,-4.93457 -11,-11s4.93457,-11 11,-11s11,4.93457 11,11s-4.93457,11 -11,11z"/>
  <path id="svg_5" fill="#303C42" d="m5.50049,9c0.07519,0 0.15137,-0.0166 0.22314,-0.05273l4,-2c0.24707,-0.12403 0.34717,-0.42383 0.22364,-0.6709s-0.42481,-0.34864 -0.6709,-0.22364l-4,2c-0.24707,0.12403 -0.34717,0.42383 -0.22364,0.6709c0.0879,0.17481 0.26416,0.27637 0.44776,0.27637z"/>
  <path id="svg_6" fill="#303C42" d="m18.72363,8.05273l-4,-2c-0.24707,-0.125 -0.54736,-0.02343 -0.6709,0.22364s-0.02343,0.54687 0.22364,0.6709l4,2c0.07177,0.03613 0.14795,0.05273 0.22314,0.05273c0.1836,0 0.35987,-0.10156 0.44776,-0.27637c0.12353,-0.24707 0.02343,-0.54687 -0.22364,-0.6709z"/>
  <path id="svg_7" fill="#303C42" d="m12,13c-3.30762,0 -6.24609,2.26465 -6.98633,5.38477c-0.03564,0.14843 -0.00097,0.30566 0.09424,0.4248c0.09473,0.12012 0.23926,0.19043 0.39209,0.19043l2.8399,0c0.59528,1.23315 1.94288,2 3.6601,2c1.71771,0 3.06512,-0.76721 3.6601,-2l2.8399,0c0.15283,0 0.29736,-0.07031 0.39209,-0.18945c0.09473,-0.12012 0.12988,-0.27637 0.09473,-0.42578c-0.73731,-3.12012 -3.6753,-5.38477 -6.98682,-5.38477z"/>
  <path id="svg_8" fill="#E53A35" d="m12,20c-1.24023,0 -2.6665,-0.51855 -2.95117,-1.97363c-0.0376,-0.19239 0.02832,-0.39063 0.16748,-0.50391c0.43603,-0.35644 0.84375,-0.52246 1.28369,-0.52246c0.34387,0 0.67664,0.09509 1,0.24182l0,0.75818c0,0.27637 0.22363,0.5 0.5,0.5s0.5,-0.22363 0.5,-0.5l0,-0.77899c0.73737,-0.34308 1.52368,-0.32959 2.28564,0.2995l0.00049,0c0.1377,0.11426 0.20264,0.31152 0.16553,0.50293c-0.2832,1.45703 -1.71045,1.97656 -2.95166,1.97656z"/>
  <path id="svg_9" opacity="0.2" fill="#FFFFFF" d="m9.21631,18.02246c0.43603,-0.35644 0.84375,-0.52246 1.28369,-0.52246c0.34387,0 0.67664,0.09509 1,0.24182l0,-0.5c-0.32336,-0.14673 -0.65613,-0.24182 -1,-0.24182c-0.43994,0 -0.84766,0.16602 -1.28369,0.52246c-0.13916,0.11328 -0.20508,0.31152 -0.16748,0.50391c0.01178,0.06036 0.03668,0.10962 0.05231,0.16675c0.03015,-0.06342 0.06176,-0.1272 0.11517,-0.17066z"/>
  <path id="svg_10" opacity="0.2" fill="#FFFFFF" d="m14.78564,18.02051l0.00049,0c0.05262,0.04364 0.08362,0.10711 0.11335,0.17004c0.01562,-0.05725 0.0404,-0.10663 0.05218,-0.16711c0.03711,-0.19141 -0.02783,-0.38867 -0.16553,-0.50293l-0.00049,0c-0.76196,-0.62909 -1.54827,-0.64258 -2.28564,-0.2995l0,0.5c0.73737,-0.34308 1.52368,-0.32959 2.28564,0.2995z"/>
  <path id="svg_11" fill="#B72025" d="m15.94617,18c0.02643,-0.48181 -0.15595,-0.94751 -0.52527,-1.25098c-1.07617,-0.88672 -2.31445,-0.9375 -3.4209,-0.39941c-1.09961,-0.53418 -2.32666,-0.49316 -3.41699,0.39844c-0.37042,0.30383 -0.55438,0.76947 -0.52875,1.25195l-1.88238,0c0.85205,-2.31934 3.24755,-4 5.82812,-4c2.62891,0 4.98291,1.64844 5.83057,4l-1.8844,0z"/>
  <path id="svg_12" opacity="0.1" fill="#010101" d="m12.51544,14.51538c1.56836,0 3.03082,0.59583 4.14203,1.56848c-1.14819,-1.27569 -2.82989,-2.08386 -4.65747,-2.08386c-2.58057,0 -4.97607,1.68066 -5.82812,4l0.75488,0c0.99829,-2.04462 3.20654,-3.48462 5.58868,-3.48462z"/>
 </g>
</svg>